<?xml version="1.0" encoding="UTF-8"?><svg id="Calque_1" xmlns="http://www.w3.org/2000/svg" viewBox="0 0 1080 1080"><defs><style>.cls-1{fill:#583f2b;}.cls-2{fill:#edd194;}</style></defs><rect class="cls-1" x="-16" y="-24" width="1104" height="1124"/><path class="cls-2" d="M182.58,558.1l-.42,2.08h-56.18l.84-2.08c17.06-2.08,26.21-12.48,29.95-32.46l45.78-234.24c2.5-12.07-5-18.74-23.73-20.39l.42-2.08h49.52l56.58,257.55,157.7-257.55h43.7l-.84,2.08c-17.06,2.08-26.21,12.48-29.95,32.44l-44.12,224.71c-3.32,16.64,3.33,28.28,22.06,29.95l-.42,2.08h-78.23l.84-2.08c17.06-2.08,26.21-12.48,29.95-32.46l44.1-227.6-160.61,262.14h-5l-58.67-264.22-45.35,232.19c-3.33,16.64,3.32,28.28,22.05,29.95Z"/><path class="cls-2" d="M577.07,561.42c-51.18,0-84.89-34.52-84.89-88.21,0-68.66,52.02-137.72,123.17-137.72,39.95,0,68.24,21.63,68.24,50.75,0,59.93-118.59,71.98-161.44,71.98-.42,4.18-.42,8.34-.42,12.5,0,45.75,26.63,76.97,68.66,76.97s79.47-32.46,89.45-59.5l3.33,1.65c-10.4,27.9-48.68,71.57-106.1,71.57ZM522.55,454.9c43.7,0,135.65-14.96,135.65-72.38,0-25.39-17.89-42.86-44.94-42.86-52.01,0-84.87,64.5-90.71,115.25ZM646.14,304.28l-28.71,18.72h-2.5l16.22-27.87c4.17-7.48,9.57-10.4,14.57-10.4,5.4,0,9.16,3.32,9.16,7.48,0,3.75-2.5,7.91-8.74,12.07Z"/><path class="cls-2" d="M755.17,561.42c-20.81,0-28.71-21.23-21.22-59.07l39.95-200.99c2.08-9.56-11.24-14.56-34.96-14.56l.84-2.49c25.38,0,52.01-.43,64.91-15.39l2.08.41-41.2,207.21c-4.98,24.98-12.9,66.17,5,66.17,11.65,0,22.89-16.64,37.87-55.77l3.74.84c-9.16,24.98-25.79,73.65-57,73.65Z"/><path class="cls-2" d="M890.84,561.42c-20.81,0-29.13-22.04-21.22-59.07l17.47-80.32c5.4-24.96,11.64-66.15-6.24-66.15-11.65,0-22.89,16.64-37.87,55.75l-3.75-.84c9.16-24.96,25.81-73.65,57.01-73.65,20.8,0,30.37,22.06,22.47,59.09l-17.49,80.3c-5.4,24.98-12.9,66.17,5,66.17,11.65,0,22.89-16.64,37.87-55.77l3.74.84c-9.16,24.98-25.79,73.65-57,73.65ZM908.31,313.43c-10.82,0-20.39-6.65-20.39-19.96s10.41-24.98,25.81-24.98c9.56,0,18.72,5.83,18.72,19.15s-9.98,25.79-24.13,25.79Z"/><path class="cls-2" d="M480.12,830.4c-15.91,0-22.28-16.23-16.23-45.18l12.42-58.57c7.31-34.04,0-54.74-18.14-54.74-32.46,0-67.46,66.53-76.7,113.62h-.31l-9.23,43.91c-3.82-1.91-7-2.53-10.18-2.53s-6.37.62-10.18,2.22l21.63-102.48c7.33-34.04,0-54.74-18.13-54.74-32.46,0-67.47,66.53-76.7,113.62l-8.59,43.91c-3.82-1.6-7-2.53-10.18-2.53s-6.36.93-10.51,2.53l20.69-105.66c3.82-19.08,10.18-50.58-3.5-50.58-8.9,0-17.5,12.72-28.96,42.62l-2.86-.62c6.99-19.1,19.72-56.34,43.59-56.34,15.92,0,21.65,16.88,15.92,45.2l-9.24,47.09c17.82-48.05,51.56-91.65,83.38-91.65,23.24,0,34.69,23.24,28,55.05l-7.31,34.06c18.13-47.12,51.23-89.12,82.42-89.12,23.22,0,34.69,23.24,28,55.05l-10.83,50.92c-4.14,19.1-10.18,50.61,3.5,50.61,8.92,0,17.51-12.74,28.96-42.65l2.87.65c-7,19.08-19.73,56.32-43.6,56.32Z"/><path class="cls-2" d="M601.05,830.4c-39.14,0-64.93-26.42-64.93-67.46,0-52.52,39.78-105.35,94.2-105.35,30.55,0,52.2,16.57,52.2,38.82,0,45.83-90.7,55.05-123.48,55.05-.32,3.2-.32,6.38-.32,9.56,0,35,20.37,58.88,52.52,58.88s60.78-24.84,68.42-45.52l2.55,1.27c-7.96,21.32-37.23,54.74-81.15,54.74ZM559.36,748.93c33.41,0,103.75-11.45,103.75-55.36,0-19.41-13.69-32.8-34.38-32.8-39.78,0-64.93,49.34-69.37,88.16ZM653.86,633.73l-21.96,14.32h-1.91l12.42-21.32c3.18-5.74,7.31-7.96,11.14-7.96,4.14,0,6.99,2.56,6.99,5.74,0,2.87-1.9,6.05-6.68,9.23Z"/><path class="cls-2" d="M721.97,830.4c-15.91,0-21.96-16.23-16.23-45.18l30.55-153.71c1.59-7.34-8.59-11.14-26.74-11.14l.65-1.91c19.41,0,39.78-.33,49.64-11.79l1.59.33-31.51,158.47c-3.81,19.1-9.86,50.61,3.82,50.61,8.92,0,17.5-12.74,28.96-42.65l2.86.65c-6.99,19.08-19.72,56.32-43.59,56.32Z"/><path class="cls-2" d="M848.3,831.05c-43.91,0-70.01-28.66-70.01-69.4,0-56.32,49.33-103.72,105.34-103.72,43.91,0,69.37,29.26,69.37,69.99,0,56.01-48.05,103.13-104.7,103.13ZM850.21,827.84c49.01,0,81.15-60.14,81.15-106.28,0-34.38-17.82-60.46-49.64-60.46-48.69,0-82.42,60.14-82.42,106.59,0,34.69,18.78,60.14,50.92,60.14Z"/><path class="cls-2" d="M121.42,601.31c-2.7,9.28-3.42,17.1-3.58,22.41-.19,5.98-.12,23.44,7.74,40.3,1.38,2.96,3.36,6.66,6.27,13.58,2.73,6.47,4.2,10.82,5.6,14.64,2.15,5.89,5.54,14.37,10.74,24.81-3.88-2.31-9.38-6.17-14.29-12.34-5.47-6.87-7.04-12.58-9.12-16.8-3.62-7.35-11.88-16.45-32.75-22.9,4.25,17.24,11.78,25.78,18.06,30.4,6.23,4.58,11.33,5.38,21.84,12.16,8.27,5.33,14.34,10.78,18.21,14.61,0,0,7.89,15.53,10.93,18.46,1.78,3.48,3.84,7.14,6.21,10.9,4.15,6.59,8.45,12.23,12.53,16.98.18.17.35.35.53.52-2.9-.73-7.04-2.11-11.4-4.88-3.1-1.97-5.39-4.06-8.95-7.83-3.68-3.89-8.47-9.32-13.72-16.32-4.05-4.88-10.85-11.77-21.01-17.21-5.77-3.09-11.19-4.95-15.63-6.09.15,1.05.4,2.49.84,4.16.23.88,1.87,7.05,5.78,12.61,3.92,5.58,8.68,8.51,13.35,11.33,11.5,6.93,17.2,5.9,28.72,13.34,3.41,2.2,5.99,4.28,7.54,5.6-5.13-1.49-12.43-2.9-21.1-2.26-19.08,1.4-32.04,11.77-36.82,16.03,3.45,1.29,9.02,2.93,15.81,2.68,19.13-.68,26.24-15.44,43.14-13.64,1.61.17,9.16,1.12,15.72,6.57,4.51,3.75,6.2,7.68,10.57,16.84,2.45,5.13,6.28,13.07,11.35,23.07l5.55,2.97c-3.3-6.11-6.03-11.37-8.13-15.48-4.84-9.49-5.96-12.17-6.68-15.75-.37-1.82-1.12-6.32-.1-13.98,2.04-15.31,8.02-19.33,9.75-29.8.96-5.81.73-14.31-5.04-25.55-.46.71-1.06,1.68-1.71,2.88-.59,1.09-1.57,3.01-2.65,5.93-1.55,3.95-2.42,7.5-2.93,10.48-1.7,10.04.36,15.99.77,34.41.14,6.01.04,10.93-1.41,11.26-.52.12-1.12-.38-3.13-3.04-3.09-4.12-5.13-7.55-6.15-9.23-1.68-2.74-2.97-4.52-5.48-7.98-1.65-2.27-4.05-5.45-7.2-9.16-1.83-1.9-4.5-5.14-6.38-9.81-.55-1.35-3.88-9.92-1.12-19.79,2.09-7.48,6.25-10.58,9.02-14.67,4.51-6.68,7.19-18.78-2.17-42.58-7.96,11.28-9.59,20.38-9.52,26.76.07,6.23,1.91,23.68.08,29.98-.12.41-.67,2.2-1.06,4.7-.4,2.58-.45,4.72-.43,6.08-7.78-12.45-11.12-23.49-12.69-30.63-2.46-11.15-1.44-16.48-.21-19.95,2.37-6.73,6.87-10.41,8.82-12.39,6.24-6.31,11.01-19.95,3.63-52.41-3.27,6.78-6.59,14.97-9.26,24.46-4.16,14.79-5.41,28-5.57,38.27-.59,5.77-1.18,11.55-1.78,17.32-1.9-4.3-4.32-10.8-5.53-18.97-2.09-14.17.97-23.14,1.59-31.78.74-10.31-1.64-25.13-15.98-44.26Z"/></svg>